# xmcd
#
# Track frame offsets: 
#        150
#        18272
#        32747
#        53634
#        66756
#        90640
#        111582
#        125086
#        145369
#        164539
#        182819
#        190970
#
# Disc length: 2750 seconds
#
# Revision: 0
# Processed by: cddbd v1.5.2PL0 Copyright (c) Steve Scherf et al.
# Submitted via: ExactAudioCopy v0.95b4
#
DISCID=ae0abc0c
DTITLE=Greg Whitfield - Greg Whitfield
DYEAR=2003
DGENRE=Country
TTITLE0=When She Goes
TTITLE1=Dream Come True
TTITLE2=You Don't Laugh Anymore
TTITLE3=Upper Middle Class
TTITLE4=Martin's Song
TTITLE5=I'm Yours
TTITLE6=Love Me or Leave Me
TTITLE7=Patches of Blue
TTITLE8=Blink of an Eye
TTITLE9=Without Sunshine
TTITLE10=Rita Girl
TTITLE11=Sucks to be You
EXTD=
EXTT0=
EXTT1=
EXTT2=
EXTT3=
EXTT4=
EXTT5=
EXTT6=
EXTT7=
EXTT8=
EXTT9=
EXTT10=
EXTT11=
PLAYORDER=
